<svg width="501" height="563" xmlns="http://www.w3.org/2000/svg" xmlns:xlink="http://www.w3.org/1999/xlink" overflow="hidden"><defs><clipPath id="clip0"><rect x="193" y="43" width="501" height="563"/></clipPath></defs><g clip-path="url(#clip0)" transform="translate(-193 -43)"><rect x="204" y="44" width="324" height="136" fill="#8FAADC"/><rect x="204" y="467" width="324" height="136" fill="#8FAADC"/><rect x="391" y="251" width="187" height="122" fill="#FFF2CC"/><path d="M257 74 459.419 74.0001" stroke="#203864" stroke-width="4" stroke-miterlimit="8" stroke-dasharray="4 4" fill="none" fill-rule="evenodd"/><path d="M257 81 459.419 81.0001" stroke="#203864" stroke-width="4" stroke-miterlimit="8" stroke-dasharray="12 4" fill="none" fill-rule="evenodd"/><path d="M257 151 459.419 151" stroke="#203864" stroke-width="4" stroke-miterlimit="8" fill="none" fill-rule="evenodd"/><path d="M257 497 459.419 497" stroke="#203864" stroke-width="4" stroke-miterlimit="8" stroke-dasharray="4 4" fill="none" fill-rule="evenodd"/><path d="M257 504 459.419 504" stroke="#203864" stroke-width="4" stroke-miterlimit="8" stroke-dasharray="12 4" fill="none" fill-rule="evenodd"/><path d="M257 574 459.419 574" stroke="#203864" stroke-width="4" stroke-miterlimit="8" fill="none" fill-rule="evenodd"/><path d="M449 278 512.459 278" stroke="#663300" stroke-width="4" stroke-miterlimit="8" stroke-opacity="0.65098" fill="none" fill-rule="evenodd"/><path d="M449 351 512.459 351" stroke="#663300" stroke-width="4" stroke-miterlimit="8" stroke-opacity="0.65098" fill="none" fill-rule="evenodd"/><path d="M286 151 286 559.2 280 559.2 280 151ZM292 556.2 283 574.2 274 556.2Z" fill="#767171" fill-opacity="0.698039"/><path d="M303 78 303 486.2 297 486.2 297 78ZM309 483.2 300 501.2 291 483.2Z" fill="#767171" fill-opacity="0.698039"/><path d="M420.783 150.879 464.393 259.095 458.828 261.338 415.217 153.121ZM468.836 254.07 467.217 274.129 452.141 260.798Z" fill="#767171" fill-opacity="0.258824"/><path d="M424.787 76.8906 497.697 260.082 492.122 262.301 419.213 79.1094ZM502.162 255.076 500.456 275.128 485.438 261.732Z" fill="#767171" fill-opacity="0.6"/><path d="M2.80928-1.0526 52.3051 131.047 46.6865 133.152-2.80928 1.0526ZM56.871 126.132 54.7587 146.146 40.0153 132.448Z" fill="#767171" fill-opacity="0.698039" transform="matrix(-1 -8.74228e-08 -8.74228e-08 1 468.759 352)"/><path d="M2.81841-1.02788 78.9976 207.853 73.3608 209.909-2.81841 1.02788ZM83.6066 202.979 81.3186 222.973 66.6961 209.146Z" fill="#767171" fill-opacity="0.698039" transform="matrix(-1 -8.74228e-08 -8.74228e-08 1 499.319 351)"/><path d="M481 278 481 334.191 475 334.191 475 278ZM487 331.191 478 349.191 469 331.191Z" fill="#767171" fill-opacity="0.698039"/><text fill="#FFFFFF" font-family="Calibri,Calibri_MSFontService,sans-serif" font-weight="400" font-size="27" transform="matrix(-1.83697e-16 -1 1 -1.83697e-16 233.916 151)">excited<tspan x="-422" y="1.27707">ground</tspan></text><text fill="#663300" font-family="Calibri,Calibri_MSFontService,sans-serif" font-weight="400" font-size="16" transform="translate(529.755 350)">1<tspan font-size="24" x="8.16663" y="7">E</tspan><tspan x="-2.44684" y="-71">1</tspan><tspan font-size="24" x="5.71985" y="-64">A</tspan><tspan x="19.5532" y="-59">1</tspan></text><path d="M565 491 610.616 491" stroke="#595959" stroke-width="4" stroke-miterlimit="8" stroke-dasharray="4 4" fill="none" fill-rule="evenodd"/><path d="M565 519 610.616 519" stroke="#595959" stroke-width="4" stroke-miterlimit="8" stroke-dasharray="12 4" fill="none" fill-rule="evenodd"/><path d="M565 550 610.616 550" stroke="#595959" stroke-width="4" stroke-miterlimit="8" fill="none" fill-rule="evenodd"/><path d="M565 577 600.616 577 600.616 581 565 581ZM598.616 573 610.616 579 598.616 585Z" fill="#3B3838" fill-opacity="0.34902"/><text font-family="Calibri,Calibri_MSFontService,sans-serif" font-weight="400" font-size="19" transform="translate(617.667 494)">m<tspan font-size="12" x="14.8333" y="4">s</tspan><tspan x="23.8333" y="0">= +1</tspan><tspan x="0" y="31">m</tspan><tspan font-size="12" x="14.8333" y="35">s</tspan><tspan x="23.8333" y="31">= </tspan>-<tspan x="43" y="31">1</tspan><tspan x="0" y="61">m</tspan><tspan font-size="12" x="14.8333" y="65">s</tspan><tspan x="23.8333" y="61">= 0</tspan><tspan x="0" y="92">decay</tspan></text><rect x="546" y="467" width="145" height="136" stroke="#767171" stroke-width="4" stroke-miterlimit="8" fill="none"/><text fill="#3B3838" font-family="Calibri,Calibri_MSFontService,sans-serif" font-weight="400" font-size="21" transform="translate(487.506 320)">1042nm<tspan x="-280.721" y="-7">637nm</tspan></text><text fill="#663300" font-family="Calibri,Calibri_MSFontService,sans-serif" font-weight="400" font-size="27" transform="matrix(-1.83697e-16 -1 1 -1.83697e-16 428.372 352)">i<tspan x="6" y="1.10218e-15">nterm</tspan><tspan x="73" y="1.34099e-14">.</tspan></text><text fill="#FFFFFF" font-family="Calibri,Calibri_MSFontService,sans-serif" font-weight="700" font-size="25" transform="translate(474.691 115)">3<tspan font-size="37" x="12.6667" y="11">E</tspan><tspan font-size="21" x="-1.91843" y="423">3</tspan><tspan font-size="32" x="8.91492" y="433">A</tspan><tspan font-size="21" x="28.2482" y="440">2</tspan></text><path d="M368.833 86.1667 368.833 145.051 368.167 145.051 368.167 86.1667ZM364.5 87.5001 368.5 79.5001 372.5 87.5ZM372.5 143.717 368.5 151.717 364.5 143.717Z" fill="#203864"/><rect x="328" y="98" width="93" height="35" fill="#8FAADC"/><text fill="#203864" font-family="Calibri,Calibri_MSFontService,sans-serif" font-weight="400" font-size="21" transform="translate(337.239 122)">1.42GHz</text><path d="M358.833 510.167 358.833 569.051 358.167 569.051 358.167 510.167ZM354.5 511.5 358.5 503.5 362.5 511.5ZM362.5 567.717 358.5 575.717 354.5 567.717Z" fill="#203864"/><rect x="313" y="521" width="94" height="36" fill="#8FAADC"/><text fill="#203864" font-family="Calibri,Calibri_MSFontService,sans-serif" font-weight="400" font-size="21" transform="translate(322.959 546)">2.87GHz</text></g></svg>