<svg width="642" height="576" xmlns="http://www.w3.org/2000/svg" xmlns:xlink="http://www.w3.org/1999/xlink" overflow="hidden"><defs><clipPath id="clip0"><rect x="164" y="28" width="642" height="576"/></clipPath></defs><g clip-path="url(#clip0)" transform="translate(-164 -28)"><rect x="535" y="530" width="225" height="59" fill="#8FAADC"/><rect x="204.5" y="428.5" width="599" height="175" stroke="#203864" stroke-width="0.333333" stroke-miterlimit="8" fill="none"/><path d="M257 74 459.419 74.0001" stroke="#203864" stroke-width="4" stroke-miterlimit="8" stroke-dasharray="4 4" fill="none" fill-rule="evenodd"/><path d="M257 81 459.419 81.0001" stroke="#203864" stroke-width="4" stroke-miterlimit="8" stroke-dasharray="12 4" fill="none" fill-rule="evenodd"/><path d="M257 151 459.419 151" stroke="#203864" stroke-width="4" stroke-miterlimit="8" fill="none" fill-rule="evenodd"/><path d="M257 497 459.419 497" stroke="#203864" stroke-width="4" stroke-miterlimit="8" stroke-dasharray="4 4" fill="none" fill-rule="evenodd"/><path d="M257 504 459.419 504" stroke="#203864" stroke-width="4" stroke-miterlimit="8" stroke-dasharray="12 4" fill="none" fill-rule="evenodd"/><path d="M257 574 459.419 574" stroke="#203864" stroke-width="4" stroke-miterlimit="8" fill="none" fill-rule="evenodd"/><path d="M454 278 517.459 278" stroke="#203864" stroke-width="4" stroke-miterlimit="8" fill="none" fill-rule="evenodd"/><path d="M454 351 517.459 351" stroke="#203864" stroke-width="4" stroke-miterlimit="8" fill="none" fill-rule="evenodd"/><path d="M286 153 286 559.569 280 559.569 280 153ZM292 556.568 283 574.568 274 556.568Z" fill="#FF0000"/><path d="M303 77 303 486.239 297 486.239 297 77ZM309 483.239 300 501.239 291 483.239Z" fill="#FF0000"/><path d="M428.783 152.879 472.393 261.095 466.828 263.338 423.217 155.121ZM476.836 256.07 475.217 276.129 460.141 262.798Z" fill="#767171" fill-opacity="0.258824"/><path d="M424.787 76.8906 497.697 260.082 492.122 262.301 419.213 79.1094ZM502.162 255.076 500.456 275.128 485.438 261.732Z" fill="#767171" fill-opacity="0.6"/><path d="M2.80447-1.06533 53.7126 132.95 48.1037 135.08-2.80447 1.06533ZM58.2562 128.014 56.2347 148.037 41.4293 134.406Z" fill="#767171" fill-opacity="0.698039" transform="matrix(-1 -8.74228e-08 -8.74228e-08 1 476.235 352)"/><path d="M2.81841-1.02788 78.9976 207.853 73.3608 209.909-2.81841 1.02788ZM83.6066 202.979 81.3186 222.973 66.6961 209.146Z" fill="#767171" fill-opacity="0.698039" transform="matrix(-1 -8.74228e-08 -8.74228e-08 1 499.319 351)"/><path d="M497 280 497 334.31 491 334.31 491 280ZM503 331.31 494 349.31 485 331.31Z" fill="#767171" fill-opacity="0.8"/><text fill="#1F4E79" font-family="Calibri,Calibri_MSFontService,sans-serif" font-weight="400" font-size="16" transform="translate(419.099 350)">1<tspan font-size="24" x="8.16669" y="7">E</tspan><tspan x="-5.22119" y="-73">1</tspan><tspan font-size="24" x="2.94547" y="-66">A</tspan><tspan x="16.7788" y="-61">1</tspan></text><path d="M584 85 629.616 85.0001" stroke="#595959" stroke-width="4" stroke-miterlimit="8" stroke-dasharray="4 4" fill="none" fill-rule="evenodd"/><path d="M584 112 629.616 112" stroke="#595959" stroke-width="4" stroke-miterlimit="8" stroke-dasharray="12 4" fill="none" fill-rule="evenodd"/><path d="M584 144 629.616 144" stroke="#595959" stroke-width="4" stroke-miterlimit="8" fill="none" fill-rule="evenodd"/><path d="M584 170 619.616 170 619.616 174 584 174ZM617.616 166 629.616 172 617.616 178Z" fill="#3B3838" fill-opacity="0.34902"/><text font-family="Calibri,Calibri_MSFontService,sans-serif" font-weight="400" font-size="19" transform="translate(636.229 87)">m<tspan font-size="12" x="14.8333" y="4">s</tspan><tspan x="23.8333" y="0">= +1</tspan><tspan x="0" y="31">m</tspan><tspan font-size="12" x="14.8333" y="35">s</tspan><tspan x="23.8333" y="31">= </tspan>-<tspan x="43" y="31">1</tspan><tspan x="0" y="61">m</tspan><tspan font-size="12" x="14.8333" y="65">s</tspan><tspan x="23.8333" y="61">= 0</tspan><tspan x="0" y="92">n</tspan><tspan x="9.83331" y="92">on</tspan><tspan x="29.5" y="92">-</tspan><tspan x="35.1666" y="92">radiative decay</tspan><tspan x="0" y="122">optical transition</tspan></text><rect x="565" y="60" width="238" height="162" stroke="#767171" stroke-width="4" stroke-miterlimit="8" fill="none"/><text fill="#FF0000" font-family="Calibri,Calibri_MSFontService,sans-serif" font-weight="400" font-size="32" transform="translate(183.541 306)">637nm<tspan fill="#1F4E79" font-weight="700" font-size="25" x="28.369" y="-184">3</tspan><tspan fill="#1F4E79" font-weight="700" font-size="37" x="41.0357" y="-173">E</tspan><tspan fill="#1F4E79" font-weight="700" font-size="21" x="34.4217" y="155">3</tspan><tspan fill="#1F4E79" font-weight="700" x="45.2551" y="165">A</tspan><tspan fill="#1F4E79" font-weight="700" font-size="21" x="64.5884" y="172">2</tspan></text><path d="M487 280 487 334.483 481 334.483 481 280ZM493 331.483 484 349.483 475 331.483Z" fill="#C00000" fill-opacity="0.101961"/><path d="M336 75.0002 336 571.896 330 571.896 330 75.0002ZM324 78 333 60 342 78Z" fill="#60E55D"/><path d="M352 62.0002 352 500.593 346 500.593 346 62.0002ZM340 65 349 47 358 65Z" fill="#60E55D"/><text fill="#21B31D" font-family="Calibri,Calibri_MSFontService,sans-serif" font-weight="400" font-size="32" transform="translate(355.535 236)">532nm</text><path d="M546 462 748.419 462" stroke="#203864" stroke-width="4" stroke-miterlimit="8" stroke-dasharray="4 4" fill="none" fill-rule="evenodd"/><path d="M546 543 748.419 543" stroke="#203864" stroke-width="4" stroke-miterlimit="8" stroke-dasharray="12 4" fill="none" fill-rule="evenodd"/><path d="M546 574 748.419 574" stroke="#203864" stroke-width="4" stroke-miterlimit="8" fill="none" fill-rule="evenodd"/><path d="M0 0 86.6976 35.069" stroke="#767171" stroke-miterlimit="8" fill="none" fill-rule="evenodd" transform="matrix(1 0 0 -1 459.5 497.569)"/><path d="M459.5 504.5 546.198 543.849" stroke="#767171" stroke-miterlimit="8" fill="none" fill-rule="evenodd"/><path d="M0 0 86.6976 0.000104987" stroke="#767171" stroke-miterlimit="8" fill="none" fill-rule="evenodd" transform="matrix(1 0 0 -1 459.5 574.5)"/><path d="M560.833 473.167 560.833 532.051 560.167 532.051 560.167 473.167ZM556.5 474.5 560.5 466.5 564.5 474.5ZM564.5 530.717 560.5 538.717 556.5 530.717Z" fill="#203864"/><text fill="#203864" font-family="Calibri,Calibri_MSFontService,sans-serif" font-weight="400" font-size="24" transform="translate(568.13 509)">2<tspan font-family="Times New Roman,Times New Roman_MSFontService,sans-serif" x="12.1667" y="0">γ</tspan><tspan font-size="16" x="22.8334" y="5">nv</tspan><tspan font-family="Times New Roman,Times New Roman_MSFontService,sans-serif" x="38.0667" y="0">B</tspan><tspan font-size="16" x="54.0667" y="5">0</tspan></text><path d="M584 199 619.616 199 619.616 203 584 203ZM617.616 195 629.616 201 617.616 207Z" fill="#2FDD2B"/><path d="M583 199 587 199 587 203 583 203ZM591 199 595 199 595 203 591 203ZM599 199 603 199 603 203 599 203ZM607 199 611 199 611 203 607 203ZM615 199 618.616 199 618.616 203 615 203ZM616.616 195 628.616 201 616.616 207Z" fill="#FF0000"/><path d="M610.049 552.495 611.219 549.636 612.797 547.028 614.758 544.928 616.952 543.37 619.366 542.346 622 542.053 624.637 542.346 627.183 543.438 629.509 545.129 631.463 547.293 632.981 549.845 634.061 552.682 634.802 555.777 635.003 559 634.802 562.216 634.06 565.455 632.841 568.435 631.259 570.979 629.316 573.061 627.109 574.698 624.696 575.649 622.083 576.012 619.426 575.716 616.855 574.614 613.579 572.051 611.166 567.588 613.806 566.161 616.07 570.349 615.674 569.881 618.549 572.131 618.216 571.934 620.403 572.871 619.978 572.759 622.228 573.009 621.856 573.014 624.106 572.702 623.763 572.792 625.825 571.979 625.481 572.17 627.419 570.733 627.216 570.914 628.966 569.039 628.789 569.271 630.226 566.958 630.112 567.182 631.237 564.432 631.163 564.665 631.85 561.665 631.815 561.906 632.003 558.906 632.003 559.094 631.815 556.094 631.854 556.349 631.166 553.474 631.223 553.659 630.223 551.034 630.336 551.267 628.961 548.954 629.137 549.193 627.387 547.255 627.618 547.463 625.555 545.963 625.847 546.129 623.659 545.191 624.084 545.303 621.834 545.053 622.166 545.053 619.916 545.303 620.336 545.193 618.273 546.068 618.556 545.911 616.618 547.286 616.847 547.086 615.097 548.961 615.283 548.714 613.846 551.089 613.951 550.88 612.826 553.63ZM608.521 569.478 610.563 559.625 617.22 567.17Z" fill="#FFFFFF"/><text fill="#FFFFFF" font-family="Calibri,Calibri_MSFontService,sans-serif" font-weight="400" font-size="24" transform="translate(643.457 566)">qubit<tspan fill="#DC6A6A" font-size="21" x="-239.586" y="-247">1042nm</tspan></text></g></svg>